<svg width="28" height="29" viewBox="0 0 28 29" fill="none" xmlns="http://www.w3.org/2000/svg">
<path d="M22.5528 22.2558H8.3741C7.05608 22.2558 5.79131 21.6893 4.89932 20.7047C4.45687 20.2165 4.11855 19.6411 3.90552 19.0145C3.69248 18.3879 3.6093 17.7235 3.66117 17.0628L4.76618 3.62837C4.80612 3.21023 4.65968 2.80558 4.3801 2.49535C4.10051 2.18512 3.71443 2.02326 3.30171 2.02326H0.998502C0.452654 2.02326 0 1.56465 0 1.01163C0 0.458605 0.452654 0 0.998502 0H3.31503C4.2869 0 5.20552 0.418139 5.85788 1.13302C6.21734 1.53767 6.48361 2.00977 6.63005 2.53581H23.2584C24.6031 2.53581 25.8412 3.07535 26.7465 4.04651C27.6385 5.03116 28.0912 6.31256 27.9847 7.67488L27.2658 17.7912C27.1193 20.2595 24.9892 22.2558 22.5528 22.2558ZM6.69662 4.54558L5.65818 17.2247C5.59161 18.007 5.84456 18.7488 6.36379 19.3288C6.88301 19.9088 7.60193 20.2191 8.3741 20.2191H22.5528C23.9374 20.2191 25.1889 19.0321 25.2954 17.6293L26.0143 7.51302C26.0459 7.13059 25.9982 6.74568 25.8742 6.38303C25.7503 6.02039 25.5528 5.68802 25.2945 5.40729C25.0363 5.12656 24.7229 4.90367 24.3745 4.75295C24.0261 4.60222 23.6505 4.52699 23.2718 4.53209H6.69662V4.54558ZM19.97 29C18.5056 29 17.3074 27.786 17.3074 26.3023C17.3074 24.8186 18.5056 23.6047 19.97 23.6047C21.4345 23.6047 22.6327 24.8186 22.6327 26.3023C22.6327 27.786 21.4345 29 19.97 29ZM19.97 25.6279C19.5973 25.6279 19.3044 25.9247 19.3044 26.3023C19.3044 26.68 19.5973 26.9767 19.97 26.9767C20.3428 26.9767 20.6357 26.68 20.6357 26.3023C20.6357 25.9247 20.3428 25.6279 19.97 25.6279ZM9.31935 29C7.85488 29 6.65668 27.786 6.65668 26.3023C6.65668 24.8186 7.85488 23.6047 9.31935 23.6047C10.7838 23.6047 11.982 24.8186 11.982 26.3023C11.982 27.786 10.7838 29 9.31935 29ZM9.31935 25.6279C8.94658 25.6279 8.65368 25.9247 8.65368 26.3023C8.65368 26.68 8.94658 26.9767 9.31935 26.9767C9.69213 26.9767 9.98502 26.68 9.98502 26.3023C9.98502 25.9247 9.69213 25.6279 9.31935 25.6279Z" fill="#1E1E1E"/>
</svg>
